<svg xmlns="http://www.w3.org/2000/svg" viewBox="0 0 512 512">
  <defs>
    <linearGradient id="heartGrad" x1="0" y1="0" x2="0" y2="1">
      <stop offset="0" stop-color="#FF6F61"/>
      <stop offset="1" stop-color="#DE3226"/>
    </linearGradient>
    <clipPath id="heartClip">
      <path d="M256 450.6 C112.6 337.9 41 250.9 41 166.4 C41 94.7 94.7 41 163.8 41 C204.8 41 240.6 62.5 256 97.3 C271.4 62.5 307.2 41 348.2 41 C417.3 41 471 94.7 471 166.4 C471 250.9 399.4 337.9 256 450.6 Z"/>
    </clipPath>
  </defs>
  <path d="M256 450.6 C112.6 337.9 41 250.9 41 166.4 C41 94.7 94.7 41 163.8 41 C204.8 41 240.6 62.5 256 97.3 C271.4 62.5 307.2 41 348.2 41 C417.3 41 471 94.7 471 166.4 C471 250.9 399.4 337.9 256 450.6 Z" fill="url(#heartGrad)"/>
  <g clip-path="url(#heartClip)">
    <polyline points="20 256 184 256 220 184 261 317 297 230 322 256 492 256" fill="none" stroke="#FFFFFF" stroke-width="30" stroke-linecap="round" stroke-linejoin="round"/>
  </g>
</svg>
